<svg width="496" height="431" viewBox="0 0 496 431" fill="none" xmlns="http://www.w3.org/2000/svg">
<g filter="url(#filter0_d_1_353)">
<path d="M372.527 63.5625C479.369 158.464 495.849 239.062 490.704 267.509C467.873 394.634 367.865 417.857 337.959 419.545C298.406 421.714 234.896 418.821 193.092 419.946C78.6941 426.455 32.3078 362.25 23.4647 329.384C-31.202 194.866 45.4118 91.2857 90.5922 56.3303C206.598 -44.3572 326.945 19.2053 372.527 63.5625Z" fill="#F7BC28"/>
<path d="M188.429 165.777C194.057 153.482 201.051 141.911 207.965 130.339L265.847 34.3124C271.073 25.7142 279.112 15.8303 288.437 16.6339C289.724 16.7946 290.769 17.9196 290.608 19.2856C290.608 19.4464 290.527 19.6071 290.527 19.8481C285.865 33.5089 278.067 45.9642 267.857 56.1696C265.445 58.4999 262.631 60.1071 262.229 61.3124C261.988 62.116 258.853 70.7946 257.727 74.4106C244.543 115.232 232.082 148.5 226.133 162.723" fill="#FFC9A0"/>
<path d="M231.68 156.214C225.169 175.902 223.078 186.268 212.949 191.893L159.327 212.062C168.01 195.509 178.863 172.527 188.912 156.777L231.68 156.214Z" fill="#307549"/>
<path d="M179.827 166.902C197.112 166.259 214.396 166.5 231.6 167.705C232.886 167.705 234.012 166.58 234.012 165.295C233.931 164.009 232.886 162.964 231.6 162.884C214.396 161.678 197.112 161.437 179.827 162.08C176.692 162.161 176.692 167.062 179.827 166.902Z" fill="#153A23"/>
<path d="M185.455 203.062C182.963 192.054 183.284 177.75 190.922 165.696C192.61 163.045 189.957 161.277 188.51 164.009C181.918 176.464 178.139 178.795 177.978 204.509C177.978 207.643 181.274 207.482 181.194 204.348L185.455 203.062Z" fill="#153A23"/>
<path d="M195.665 197.036C199.684 186.509 203.543 175.259 208.206 164.973C208.769 163.768 209.01 163.286 207.723 162.482C206.518 161.839 205.071 162.241 204.347 163.366C197.835 175.098 196.469 191.33 190.922 195.75C189.876 196.554 191.404 198.402 192.61 198.804C193.896 199.045 195.263 198.321 195.665 197.036Z" fill="#153A23"/>
<path d="M203.945 198.08C205.553 195.75 208.125 194.304 210.216 192.536C212.547 190.607 211.422 187.634 213.431 185.384C216.969 181.527 220.265 176.946 223.239 167.062C224.123 164.009 218.094 162.643 217.531 165.777C215.843 175.018 214.155 177.83 211.261 183.295C209.974 185.786 208.125 187.955 205.955 189.643C203.623 191.491 201.372 193.098 199.684 195.589C199.041 196.795 199.443 198.241 200.569 198.964C201.774 199.607 203.302 199.205 203.945 198.08Z" fill="#153A23"/>
<path d="M162.302 246.937C136.255 247.5 89.3863 238.098 63.3392 237.938C46.9392 237.777 35.6039 241.714 14.5412 228.857C12.2902 227.571 10.2804 225.964 8.67256 223.955C7.70785 222.67 8.91373 220.741 10.3608 221.304C24.9922 227.571 42.598 217.607 57.551 223.634C68.4843 228.054 129.663 222.911 164.875 215.116" fill="#FFC9A0"/>
<path d="M424.139 119.17C409.99 147.054 394.796 174.455 378.637 201.295C368.347 190.446 365.212 188.036 352.429 176.063L353.475 236.089L375.422 248.545C379.682 250.955 384.184 253.446 389.088 253.286C399.459 252.964 405.569 241.714 409.186 231.991C421.486 198.884 430.812 159.83 436.922 125.036L424.139 119.17Z" fill="#FFC9A0"/>
<path d="M279.755 273.536C283.533 318.857 285.302 350.598 287.874 406.446C292.135 406.205 300.335 406.607 304.435 407.652C309.42 370.205 315.931 311.866 320.755 272.652L279.755 273.536Z" fill="#FFC9A0"/>
<path d="M164.473 206.036C203.302 187.554 244.945 170.839 286.347 159.107C286.106 189.804 285.141 207.723 285.302 247.018C247.276 247.259 209.331 245.411 171.547 241.554L164.473 206.036Z" fill="#39B55D"/>
<path d="M353.475 236.089C346.159 231.911 335.869 224.92 326.784 219.536C323.649 241.554 323.81 250.795 320.755 272.732C308.133 272.732 292.377 273.455 279.755 273.536L279.514 161.116C302.747 151.714 330.402 153.964 352.51 176.062L353.475 236.089Z" fill="#153A23"/>
<path d="M170.582 239.625C184.973 239.705 192.529 239.143 206.92 239.866C217.371 240.428 229.269 240.268 256.522 241.795C266.41 242.357 278.308 242.036 288.196 242.036C291.331 242.036 291.331 234.241 288.196 234.241C271.474 234.241 254.753 236.893 238.031 236.411C223.802 236.009 209.492 235.446 195.263 235.125C186.982 234.884 178.782 234.803 170.502 234.723C167.447 234.723 167.367 239.625 170.582 239.625Z" fill="#153A23"/>
<path d="M155.469 226.045C174.602 226.687 193.655 225.402 212.788 224.759C230.957 224.196 250.171 225.241 268.259 224.277C276.218 223.875 287.231 219.536 291.251 222.107C293.904 223.795 294.386 219.295 291.251 219.214C277.986 218.571 259.174 219.857 243.578 220.58C224.445 221.464 206.276 221.303 187.063 221.464C176.531 221.545 166 221.545 155.469 221.223C152.333 221.062 152.333 225.964 155.469 226.045Z" fill="#153A23"/>
<path d="M152.414 211.259C170.422 211.339 182.561 216.08 200.327 213.187C217.853 210.295 236.504 209.25 262.149 209.089C272.278 209.009 280.398 206.598 290.527 205.795C291.814 205.714 292.939 204.67 292.939 203.303C292.939 202.098 291.814 200.491 290.527 200.893C285.543 202.178 264.32 205.875 236.584 204.428C218.657 203.545 193.333 208.125 175.406 208.446C165.276 208.607 162.543 206.437 152.414 206.357C149.278 206.437 149.278 211.259 152.414 211.259Z" fill="#153A23"/>
<path d="M172.029 195.027C202.82 193.902 230.957 195.107 261.747 193.339C270.51 192.857 281.845 190.045 290.608 189.402C291.974 189.402 293.02 188.277 293.02 186.911C293.02 185.545 291.894 184.5 290.608 184.5C259.898 186.589 232.565 190.446 198.237 189.08C189.475 188.759 180.712 189.723 171.949 190.045C168.894 190.286 168.814 195.188 172.029 195.027Z" fill="#153A23"/>
<path d="M220.345 175.821C241.327 175.902 262.39 175.339 283.373 174.134C289.241 173.812 295.19 173.411 301.059 172.929C302.425 172.929 303.471 171.804 303.471 170.518C303.471 169.152 302.345 168.107 301.059 168.027C280.076 169.634 259.094 170.598 238.112 170.839C232.163 170.92 226.294 170.92 220.345 170.92C217.129 171 217.129 175.821 220.345 175.821Z" fill="#153A23"/>
<path d="M48.5471 150.268C46.2961 151.071 44.3667 152.437 43 154.366C39.8647 158.545 39.9451 167.384 45.6529 170.036C49.1902 171.723 55.702 172.366 58.6765 169.795C61.1686 167.786 63.098 165.134 64.2235 162.08" fill="#32142A"/>
<path d="M73.3079 184.5L83.7588 191.009C84.0804 191.17 84.402 191.411 84.6432 191.732C84.8843 192.134 84.9647 192.616 84.9647 193.098L85.3667 206.839C85.4471 207.321 85.3667 207.884 85.0451 208.286C84.8039 208.527 84.402 208.768 84.0804 208.848C80.1412 210.134 76.202 211.339 72.1824 212.384L73.3079 184.5Z" fill="#E48929"/>
<path d="M74.3529 173.25C74.8353 188.277 74.5941 203.384 73.549 218.411C73.4686 219.455 73.3078 220.661 72.5039 221.464C71.7 222.268 70.4137 222.268 69.2078 222.268C49.2706 222.348 29.3333 222.429 9.39609 222.348C8.83334 222.429 8.1902 222.268 7.70785 221.946C7.38628 221.545 7.14511 221.063 7.14511 220.5C4.81373 205.152 4.57256 189.482 6.42158 174.054L74.3529 173.25Z" fill="#32142A"/>
<path d="M89.2255 185.786C89.3059 194.625 89.2255 203.464 89.1451 212.223C89.1451 212.786 89.1451 213.429 89.0647 213.991C88.9843 214.473 88.9039 214.473 88.7431 214.473C86.8941 214.554 84.9647 214.554 83.1157 214.554C83.0353 214.554 83.0353 214.554 82.9549 214.312C82.9549 214.071 82.8745 213.75 82.8745 213.509C82.6333 204.509 82.6333 194.786 82.7941 185.705L89.2255 185.786Z" fill="#32142A"/>
<path d="M47.5824 168.83C51.0393 169.152 54.5765 169.554 57.7118 168.268C60.8471 166.982 63.6608 164.411 64.3843 161.116C65.2687 157.339 63.3392 153.241 60.0432 151.071C56.5863 148.982 52.4059 148.58 48.6275 150.027C47.5824 150.348 46.6177 150.911 45.8138 151.554C44.1255 153 43.402 155.25 43 157.42C42.5177 159.509 42.5981 161.679 43.0804 163.768C43.7236 165.937 45.251 167.625 47.3412 168.429" fill="#E48929"/>
<path d="M48.0647 175.178C50.8785 170.518 53.2902 165.616 55.3804 160.554L51.9235 160.473C51.5216 160.473 51.2 160.473 50.8785 160.634C50.6373 160.795 50.3961 161.036 50.2353 161.277C47.0196 165.857 45.3314 171.241 42.2765 175.902" fill="#32142A"/>
<path d="M17.2745 141.589C14.2196 142.714 11.5667 144.804 9.71764 147.455C5.53725 153.402 5.93921 165.616 13.9784 169.152C18.9627 171.321 27.9667 171.964 32.0667 168.348C35.5235 165.455 38.0961 161.679 39.4627 157.42" fill="#32142A"/>
<path d="M9.79807 161.277C8.4314 158.545 8.91376 155.33 9.39611 152.357C9.87846 149.384 10.8432 146.17 13.1745 144C14.3 143.036 15.6667 142.232 17.0334 141.67C22.1785 139.661 28.449 139.821 33.1118 142.714C37.7745 145.607 40.6687 151.313 39.5432 156.616C38.5785 161.196 34.8 164.893 30.3785 166.902C30.4589 166.902 14.702 171.241 9.79807 161.277Z" fill="#E48929"/>
<path d="M29.8157 147.857C29.6549 147.536 29.6549 147.134 29.7353 146.732C29.7353 146.33 29.8961 146.009 30.2177 145.768C30.3784 145.687 30.5392 145.527 30.7 145.446C31.3431 145.205 32.0667 145.205 32.6294 145.607C33.1922 145.929 33.5137 146.652 33.4333 147.295C33.2726 147.857 32.8706 148.339 32.3079 148.5C32.3079 148.5 30.3784 149.062 29.8157 147.857Z" fill="#32142A"/>
<path d="M32.951 155.813C32.8706 155.491 32.8706 155.089 32.951 154.688C32.951 154.286 33.1118 153.964 33.4333 153.723C33.5941 153.563 33.7549 153.482 33.9157 153.402C34.5588 153.161 35.2824 153.161 35.8451 153.563C36.4078 153.884 36.7294 154.607 36.649 155.25C36.4882 155.813 36.0863 156.295 35.5235 156.455C35.5235 156.536 33.5941 157.018 32.951 155.813Z" fill="#32142A"/>
<path d="M20.9726 145.446C20.8118 145.125 20.8118 144.723 20.8922 144.321C20.8922 143.92 21.0529 143.598 21.3745 143.357C21.5353 143.277 21.6961 143.116 21.8569 143.036C22.5 142.795 23.2235 142.795 23.7863 143.196C24.349 143.518 24.6706 144.241 24.5902 144.884C24.4294 145.446 24.0275 145.929 23.4647 146.089C23.4647 146.089 21.5353 146.652 20.9726 145.446Z" fill="#32142A"/>
<path d="M12.6922 149.705C12.5314 149.384 12.5314 148.982 12.6118 148.58C12.6118 148.179 12.7726 147.857 13.0941 147.616C13.2549 147.536 13.4157 147.375 13.5765 147.295C14.2196 147.054 14.9431 147.054 15.5059 147.455C16.0686 147.777 16.3902 148.5 16.3098 149.143C16.149 149.705 15.7471 150.188 15.1843 150.348C15.2647 150.348 13.3353 150.911 12.6922 149.705Z" fill="#32142A"/>
<path d="M11.4059 158.464C11.2451 158.143 11.2451 157.741 11.3255 157.339C11.3255 156.937 11.4863 156.616 11.8079 156.375C11.9686 156.295 12.1294 156.134 12.2902 156.054C12.9334 155.812 13.6569 155.812 14.2196 156.214C14.7824 156.536 15.1039 157.259 15.0235 157.902C14.8628 158.464 14.4608 158.946 13.8981 159.107C13.9785 159.107 12.049 159.67 11.4059 158.464Z" fill="#32142A"/>
<path d="M18.4 164.411C18.2392 164.089 18.2392 163.687 18.3196 163.286C18.3196 162.884 18.4804 162.562 18.8019 162.321C18.9627 162.241 19.1235 162.08 19.2843 162C19.9274 161.759 20.651 161.759 21.2137 162.161C21.7765 162.482 22.098 163.205 22.0176 163.848C21.8568 164.411 21.4549 164.893 20.8921 165.054C20.8921 165.134 18.9627 165.616 18.4 164.411Z" fill="#32142A"/>
<path d="M27.8863 162.563C27.7255 162.241 27.7255 161.839 27.8059 161.438C27.8059 161.036 27.9666 160.714 28.2882 160.473C28.449 160.393 28.6098 160.232 28.7706 160.152C29.4137 159.911 30.1372 159.911 30.7 160.313C31.2627 160.634 31.5843 161.357 31.5039 162C31.3431 162.563 30.9412 163.045 30.3784 163.205C30.4588 163.286 28.5294 163.768 27.8863 162.563Z" fill="#32142A"/>
<path d="M57.9529 154.929C57.8725 154.687 57.8725 154.446 57.9529 154.205C57.9529 153.804 58.1941 153.482 58.5961 153.321C59.0784 153.161 59.5608 153.241 59.9627 153.482C60.3647 153.723 60.5255 154.205 60.4451 154.687C60.2843 155.089 60.0431 155.33 59.6412 155.491C59.6412 155.411 58.2745 155.732 57.9529 154.929Z" fill="#32142A"/>
<path d="M59.9628 160.473C59.8824 160.232 59.8824 159.991 59.9628 159.75C59.9628 159.509 60.1235 159.268 60.2843 159.027C60.3647 158.946 60.5255 158.866 60.6059 158.866C61.0883 158.705 61.5706 158.705 61.9726 158.946C62.3745 159.187 62.6157 159.67 62.4549 160.152C62.2941 160.554 62.053 160.795 61.651 160.955C61.7314 160.955 60.3647 161.357 59.9628 160.473Z" fill="#32142A"/>
<path d="M51.7627 153C51.6824 152.759 51.6824 152.518 51.7627 152.277C51.7627 152.036 51.9235 151.795 52.0843 151.553C52.1647 151.473 52.3255 151.393 52.4059 151.393C52.8882 151.232 53.3706 151.232 53.7726 151.473C54.1745 151.714 54.3353 152.196 54.2549 152.678C54.0941 153.08 53.8529 153.321 53.451 153.482C53.5314 153.562 52.1647 153.884 51.7627 153Z" fill="#32142A"/>
<path d="M45.9745 155.893C45.8941 155.652 45.8941 155.411 45.9745 155.17C45.9745 154.929 46.1353 154.687 46.2961 154.446C46.3765 154.366 46.5373 154.286 46.6177 154.286C47.1 154.125 47.5824 154.125 47.9843 154.366C48.3863 154.607 48.5471 155.089 48.4667 155.571C48.3059 155.973 48.0647 156.214 47.6628 156.375C47.7432 156.375 46.3765 156.696 45.9745 155.893Z" fill="#32142A"/>
<path d="M44.9294 161.92C44.7686 161.437 44.9294 160.875 45.251 160.473C45.3314 160.393 45.4922 160.312 45.5725 160.312C46.0549 160.152 46.5373 160.152 46.9392 160.393C47.3412 160.634 47.5824 161.116 47.4216 161.598C47.3412 162 47.0196 162.321 46.6176 162.482C46.698 162.482 45.3314 162.804 44.9294 161.92Z" fill="#32142A"/>
<path d="M49.6725 166.179C49.5921 165.937 49.5921 165.696 49.6725 165.455C49.6725 165.214 49.8333 164.973 49.9941 164.732C50.0745 164.652 50.2353 164.571 50.3157 164.571C50.798 164.411 51.2804 164.491 51.6823 164.652C52.0843 164.893 52.2451 165.375 52.1647 165.857C52.0039 166.259 51.7627 166.5 51.3608 166.661C51.4412 166.661 50.0745 167.062 49.6725 166.179Z" fill="#32142A"/>
<path d="M56.3451 165.054C56.2647 164.812 56.2647 164.571 56.3451 164.33C56.3451 164.089 56.5059 163.848 56.6667 163.607C56.747 163.527 56.9078 163.446 56.9882 163.446C57.4706 163.286 57.9529 163.286 58.3549 163.527C58.7569 163.768 58.9176 164.25 58.8372 164.732C58.6765 165.134 58.4353 165.375 58.0333 165.536C58.0333 165.616 56.747 165.937 56.3451 165.054Z" fill="#32142A"/>
<path d="M38.0961 175.179L25.0725 154.045C24.9118 153.643 24.5902 153.321 24.1882 153.161C23.7863 153 23.3039 153 22.9019 153.161L19.847 153.723C24.6706 160.875 28.9314 168.429 32.3882 176.304" fill="#32142A"/>
<path d="M212.869 244.929C215.924 240.107 217.451 234.402 217.21 228.696C217.21 228.696 214.476 237.696 197.996 244.125L212.869 244.929Z" fill="#307549"/>
<path d="M326.784 219.536L303.31 204.991L324.694 236.17L326.784 219.536Z" fill="#122D1C"/>
<path d="M133.361 155.33C134.406 175.018 128.618 194.464 128.376 214.152C128.296 215.196 128.457 216.321 128.778 217.286C129.663 219.375 132.235 220.259 134.567 220.58C141.561 221.545 148.635 219.455 155.308 216.964C158.363 215.839 161.578 214.473 163.508 211.902C165.437 209.33 165.839 205.714 166.08 202.42C167.286 186.429 168.573 159.75 167.849 143.679L133.361 155.33Z" fill="#FFC9A0"/>
<path d="M172.753 181.607C180.712 166.741 188.188 149.946 184.49 136.286C183.847 133.393 182.4 130.821 180.229 128.732C175.084 124.071 167.045 125.357 160.212 126.723C151.208 128.571 140.435 129.616 134.245 122.866C132.878 121.42 131.833 119.652 130.306 118.527C128.778 117.402 126.286 116.92 124.839 118.286C123.874 119.17 123.633 120.616 123.553 121.902C122.427 132.429 123.874 143.518 129.663 152.357C135.451 161.196 146.063 167.304 156.514 165.777C157.639 165.616 158.925 165.455 159.649 166.259C159.971 166.661 160.131 167.063 160.292 167.545L164.553 181.607H172.753Z" fill="#32142A"/>
<path d="M162.543 176.143C166.402 173.33 171.869 174.134 174.763 178.071C176.853 180.884 177.014 184.661 175.245 187.634C172.673 191.973 166.884 193.259 161.82 193.179L162.543 176.143Z" fill="#FFC9A0"/>
<path d="M179.425 167.946C159.327 168.589 133.441 154.607 133.441 154.607C133.522 157.58 133.361 162.161 133.361 165.054C146.947 166.661 163.347 174.054 177.014 173.25C177.014 173.25 178.3 170.759 179.425 167.946Z" fill="#39B55D"/>
<path d="M128.376 149.786C130.788 155.571 135.933 159.991 141.722 162.482C147.51 164.973 153.861 165.777 160.212 166.018C161.659 166.098 163.106 166.018 164.553 165.857C166.482 165.375 168.412 164.652 170.18 163.687L128.376 149.786Z" fill="#32142A"/>
<path d="M353.475 236.089L356.931 238.098L353.475 177.107L352.429 176.062L353.475 236.089Z" fill="#EFB086"/>
<path d="M279.755 273.536L279.996 276.268L320.353 275.705L320.674 272.732L279.755 273.536Z" fill="#EFB086"/>
<path d="M156.031 202.821C164.071 204.107 177.094 205.312 185.133 206.598C191.404 207.562 197.835 208.607 203.543 211.259C209.251 213.911 214.557 218.491 216.486 224.518C217.129 226.366 217.29 228.375 217.049 230.304C216.084 236.25 210.055 239.786 204.508 242.116C188.992 248.705 172.512 252.482 155.71 253.366L156.031 202.821Z" fill="#39B55D"/>
<path d="M167.206 253.366C166.482 236.089 166.884 218.812 168.492 201.536C168.492 200.25 167.367 199.125 166.08 199.125C164.714 199.125 163.669 200.25 163.588 201.536C161.98 218.732 161.578 236.089 162.302 253.366C162.463 256.5 167.367 256.5 167.206 253.366Z" fill="#153A23"/>
<path d="M166.161 215.116C172.592 214.714 179.104 214.714 185.535 215.116C192.449 215.679 201.131 218.411 207.804 220.339C210.778 221.062 213.592 222.268 216.165 223.714C218.898 225.321 221.31 221.143 218.657 219.455C213.271 216.241 206.759 214.714 200.649 213.67C193.173 212.384 185.696 211.741 178.139 211.58C174.361 211.5 170.582 211.5 166.804 211.741C163.669 211.902 163.669 216.804 166.804 216.643L166.161 215.116Z" fill="#153A23"/>
<path d="M165.759 231.107C202.337 229.58 217.21 228.696 221.631 230.062C222.918 230.464 224.043 229.018 224.043 227.652C224.043 226.366 222.918 225 221.631 225.241C202.337 228.134 184.41 226.929 165.759 226.286C162.624 226.205 162.624 231.107 165.759 231.107Z" fill="#153A23"/>
<path d="M165.678 244.527C179.988 245.17 194.78 245.491 208.849 242.357C212.467 241.554 216.004 240.429 219.461 238.902C220.586 238.179 220.988 236.732 220.345 235.527C219.622 234.402 218.175 234 216.969 234.643C211.261 237.214 204.829 238.339 198.639 239.063C191.484 239.866 185.535 241.634 178.3 241.554C174.522 241.473 168.733 241.152 164.955 240.991C161.9 240.911 162.543 244.366 165.678 244.527Z" fill="#153A23"/>
<path d="M130.869 219.455L156.031 211.982V216.884L130.869 219.455Z" fill="#EFB086"/>
<path d="M166.724 192.777C166.724 192.777 163.829 192.857 162.624 192.375L166.563 194.786L166.724 192.777Z" fill="#EFB086"/>
<path d="M164.231 190.045C166.241 190.286 168.251 189.804 169.939 188.759C171.386 187.875 172.271 186.348 172.512 184.661C172.753 183.054 172.592 181.366 171.869 179.839C171.225 178.473 170.02 177.589 168.573 177.268C166.884 176.946 165.035 177.188 163.508 177.991C163.106 178.232 162.945 178.795 163.186 179.196C163.427 179.598 163.91 179.759 164.312 179.518C166.08 178.714 169.055 178.393 170.18 180.402C170.743 181.527 170.984 182.813 170.824 184.018C170.824 185.223 170.261 186.348 169.376 187.152C167.849 188.196 166 188.679 164.231 188.438C163.749 188.438 163.347 188.839 163.347 189.321C163.347 189.643 163.749 189.964 164.231 190.045Z" fill="#32142A"/>
<path d="M164.633 186.429C165.276 186.429 166 186.348 166.563 186.027C167.206 185.705 167.608 185.223 167.849 184.5C168.171 183.777 168.171 183.054 167.849 182.33C167.608 181.848 167.125 181.366 166.643 181.205C165.92 180.884 165.196 180.804 164.473 180.804C163.99 180.804 163.588 181.205 163.588 181.688C163.588 182.17 163.99 182.571 164.473 182.571H164.955H165.196C165.276 182.571 165.357 182.571 165.276 182.571C165.437 182.571 165.598 182.652 165.759 182.652L165.92 182.732H165.839H165.92C166 182.732 166.08 182.813 166.08 182.813H166.161H166.08L166.322 183.054C166.241 182.973 166.241 182.973 166.322 182.973L166.402 183.054V183.134C166.482 183.214 166.402 183.214 166.402 183.054C166.402 183.134 166.402 183.134 166.482 183.214C166.482 183.295 166.482 183.295 166.482 183.214V183.295C166.482 183.375 166.482 183.616 166.482 183.375C166.482 183.455 166.482 183.536 166.402 183.616C166.322 183.777 166.322 183.938 166.241 184.018V183.938L166.161 184.018C166.161 184.098 166.08 184.179 166.08 184.179C166.161 184.098 166.161 184.098 166.161 184.098L166.08 184.179L166 184.259C166.08 184.179 166.08 184.179 166.08 184.259L165.92 184.339H165.839C165.759 184.42 165.518 184.42 165.437 184.42C165.357 184.42 165.116 184.5 165.357 184.42C165.276 184.42 165.196 184.42 165.116 184.42H164.633C164.151 184.5 163.829 184.902 163.829 185.384C163.91 186.027 164.231 186.348 164.633 186.429Z" fill="#32142A"/>
<path d="M132.155 178.875C130.949 179.759 127.171 188.598 126.527 195.027C126.447 196.152 127.251 197.196 128.457 197.277C130.386 197.437 132.235 197.437 134.165 197.277C134.406 197.277 134.647 197.196 134.888 197.116C135.129 196.795 135.29 196.473 135.21 196.071L132.155 178.875Z" fill="#E48929"/>
<path d="M262.551 60.4286L254.673 66.9375H260.3L262.551 60.4286Z" fill="#EFB086"/>
<path d="M397.931 168.027L425.104 180.482C425.104 180.482 433.223 150.911 437.002 125.036L423.094 121.339L397.931 168.027Z" fill="#39B55D"/>
<path d="M419.476 129.295C423.014 123.027 432.741 128.973 434.751 131.705C436.841 134.518 439.896 129.616 442.308 127.125C445.122 124.152 455.492 121.339 462.727 119.652C467.229 118.607 471.731 117.402 476.314 116.518C479.449 115.875 485.72 115.554 487.327 113.705C492.553 107.839 480.735 106.955 477.52 106.875C466.908 106.473 456.296 106.714 445.684 106.473C437.404 106.313 423.175 106.152 420.682 108.241C416.1 112.179 414.974 121.902 414.09 127.446C413.125 133.554 416.341 134.839 419.476 129.295Z" fill="#153A23"/>
<path d="M402.835 169.554C403.639 167.062 404.684 164.732 405.971 162.402C406.292 161.839 406.131 161.036 405.569 160.714C405.006 160.393 404.202 160.554 403.88 161.116C402.594 163.607 401.469 166.179 400.584 168.83C400.423 169.473 400.825 170.116 401.469 170.357C401.951 170.598 402.594 170.196 402.835 169.554Z" fill="#227B3D"/>
<path d="M407.739 172.125C408.382 169.473 409.508 166.902 411.035 164.652C411.357 164.089 411.196 163.286 410.553 162.964C409.99 162.643 409.186 162.804 408.865 163.446C407.176 165.857 405.971 168.589 405.327 171.482C405.167 172.125 405.569 172.768 406.212 173.009C406.855 173.17 407.578 172.768 407.739 172.125Z" fill="#227B3D"/>
<path d="M413.206 174.134C413.206 173.973 413.206 173.973 413.206 174.134C413.206 173.973 413.206 173.893 413.206 173.812C413.206 173.732 413.286 173.491 413.286 173.33C413.367 173.009 413.367 172.768 413.447 172.446C413.608 171.804 413.769 171.241 414.01 170.598C414.171 170.036 414.412 169.473 414.733 168.991C415.055 168.429 415.376 167.866 415.698 167.304C416.02 166.741 415.859 165.937 415.296 165.616C414.733 165.295 414.01 165.455 413.608 166.098C412 168.509 411.035 171.241 410.714 174.134C410.714 174.777 411.276 175.339 411.92 175.339C412.563 175.339 413.126 174.777 413.206 174.134Z" fill="#227B3D"/>
<path d="M418.11 177.268C418.351 174.857 418.914 172.446 419.798 170.116C419.959 169.473 419.557 168.83 418.914 168.589C418.271 168.429 417.627 168.83 417.386 169.473C416.422 171.964 415.778 174.616 415.618 177.268C415.618 177.911 416.18 178.473 416.824 178.473C417.547 178.473 418.11 177.991 418.11 177.268Z" fill="#227B3D"/>
<path d="M422.049 179.598L425.024 172.205C425.184 171.562 424.782 170.92 424.139 170.679C423.496 170.518 422.853 170.92 422.612 171.562L419.637 178.955C419.476 179.598 419.878 180.241 420.522 180.482C421.165 180.562 421.888 180.241 422.049 179.598Z" fill="#227B3D"/>
<path d="M310.786 356.705C308.535 375.509 307.088 388.768 304.837 404.92L287.875 406.527C286.91 385.312 286.026 371.973 285.463 356.303L310.786 356.705Z" fill="#39B55D"/>
<path d="M305.32 400.58C304.676 405.241 304.435 409.902 303.792 414.563C303.229 418.821 298.325 418.5 295.11 418.661C286.508 419.143 280.88 419.304 274.047 419.304C269.625 419.464 265.204 419.545 260.782 419.625C258.531 419.625 256.361 419.625 254.11 419.625C252.663 419.625 249.447 419.786 248.402 419.304C245.749 418.018 245.829 412.473 248.804 411.429C253.949 409.661 259.978 409.902 265.365 409.098C271.073 408.375 276.62 406.929 282.006 404.92C284.9 403.795 287.874 402.348 290.929 402.67C292.939 402.911 294.788 403.875 296.718 404.116C298.406 404.357 300.416 403.795 301.3 402.429C301.702 401.705 302.184 401.143 302.747 400.58C304.033 399.455 305.641 398.33 305.32 400.58Z" fill="#153A23"/>
<path d="M288.598 364.42C288.357 361.687 288.357 359.036 288.598 356.304C288.598 355.661 288.035 355.098 287.392 355.098C286.749 355.098 286.186 355.661 286.186 356.304C285.945 359.036 286.025 361.687 286.186 364.42C286.106 365.062 286.508 365.705 287.231 365.786C287.875 365.866 288.518 365.464 288.598 364.741C288.598 364.741 288.598 364.58 288.598 364.42Z" fill="#227B3D"/>
<path d="M294.145 364.5C293.663 361.929 293.663 359.277 294.145 356.625C294.306 355.982 293.904 355.339 293.261 355.098C292.618 354.937 291.975 355.339 291.733 355.982C291.171 359.036 291.171 362.089 291.733 365.143C291.894 365.786 292.618 366.187 293.261 366.027C293.904 365.866 294.306 365.223 294.145 364.5Z" fill="#227B3D"/>
<path d="M299.933 364.5C299.21 362.17 299.049 359.679 299.451 357.268C299.612 356.625 299.21 355.982 298.567 355.741C297.924 355.58 297.28 355.982 297.039 356.625C296.557 359.437 296.718 362.411 297.522 365.143C297.682 365.786 298.406 366.187 299.049 366.027C299.692 365.866 300.175 365.143 299.933 364.5Z" fill="#227B3D"/>
<path d="M305.802 365.384C304.998 363.054 304.516 360.643 304.435 358.152C304.516 357.509 304.114 356.866 303.39 356.786C302.747 356.705 302.104 357.107 302.024 357.83C302.024 357.991 302.024 358.071 302.024 358.232C302.104 360.884 302.586 363.536 303.471 366.107C303.631 366.75 304.355 367.152 304.998 366.991C305.641 366.83 305.963 366.027 305.802 365.384Z" fill="#227B3D"/>
<path d="M310.223 365.946L309.982 357.991C310.063 357.348 309.661 356.705 308.937 356.625C308.294 356.545 307.651 356.946 307.571 357.67C307.571 357.83 307.571 357.911 307.571 358.071L307.812 366.027C307.731 366.67 308.133 367.313 308.857 367.393C309.5 367.473 310.143 367.071 310.223 366.348C310.223 366.188 310.223 366.027 310.223 365.946Z" fill="#227B3D"/>
<path d="M277.504 174.777C286.186 172.205 294.708 170.196 303.551 169.955C314.565 169.634 325.418 172.446 334.824 178.071C341.737 182.411 348.008 187.795 353.233 194.063C354.198 195.027 355.726 195.027 356.69 194.063C357.655 193.098 357.655 191.571 356.69 190.607C347.526 180 336.029 171.321 322.524 167.384C312.073 164.411 301.22 164.491 290.608 166.42C285.784 167.384 280.961 168.589 276.218 170.036C273.243 171 274.529 175.741 277.504 174.777Z" fill="#307549"/>
<path d="M463.049 103.741C450.267 108.482 434.751 106.473 423.496 93.6965C416.743 85.9822 414.975 75.7768 416.904 65.8929C422.773 35.9197 466.747 28.3661 481.861 55.6072C493.759 77.2232 481.057 97.0715 463.049 103.741Z" fill="#BBD1CE"/>
<path d="M144.375 175.018H145.098L145.5 175.098C145.822 175.098 145.42 175.098 145.339 175.098C145.822 175.259 146.304 175.259 146.786 175.42C147.269 175.58 147.671 175.741 148.073 175.902C148.394 175.982 147.59 175.661 147.992 175.821L148.314 175.982C148.555 176.063 148.796 176.223 149.037 176.304C149.439 176.545 149.841 176.786 150.243 177.027L150.484 177.188C150.886 177.509 150.163 176.946 150.404 177.107C150.645 177.268 150.726 177.429 150.967 177.589C151.369 177.911 151.69 178.232 152.012 178.634L152.173 178.875C152.414 179.196 152.253 178.955 152.092 178.795C152.253 179.036 152.414 179.196 152.575 179.438C153.218 180.563 154.745 180.964 155.951 180.321C157.157 179.679 157.478 178.152 156.835 176.946C154.102 172.848 149.52 170.277 144.535 170.116C143.169 170.116 142.124 171.241 142.043 172.607C142.043 173.893 143.088 174.938 144.375 175.018Z" fill="#32142A"/>
<path d="M144.053 180.964C143.973 181.045 143.973 181.125 143.892 181.205C143.41 182.25 142.365 184.902 143.169 185.946C143.973 186.991 145.5 186.67 146.384 185.786C147.671 184.339 147.671 182.17 146.384 180.723C145.982 180.241 145.339 180 144.696 180.241C144.455 180.482 144.214 180.723 144.053 180.964Z" fill="#32142A"/>
<path d="M147.269 192.134C149.278 190.848 150.886 188.92 151.771 186.67C151.931 186.188 151.61 185.786 151.208 185.625C150.726 185.545 150.324 185.786 150.163 186.188L150.082 186.268L150.002 186.348L149.841 186.67C149.761 186.911 149.6 187.152 149.439 187.393C149.278 187.634 149.198 187.875 149.037 188.036L148.796 188.357C148.877 188.196 148.716 188.438 148.716 188.438L148.635 188.598C148.314 189 147.912 189.402 147.51 189.723L147.188 189.964L147.027 190.125C147.108 190.045 147.028 190.125 146.947 190.125C146.706 190.286 146.545 190.446 146.304 190.607C145.902 190.848 145.661 191.33 145.902 191.732C146.143 192.134 146.626 192.375 147.027 192.134C147.188 192.134 147.188 192.054 147.269 192.134Z" fill="#32142A"/>
<path d="M150.565 193.741C151.61 193.098 152.575 192.295 153.298 191.33C153.459 191.17 153.459 190.929 153.378 190.687C153.298 190.446 153.137 190.286 152.977 190.205C152.816 190.125 152.575 190.045 152.333 190.125C152.092 190.205 151.931 190.366 151.851 190.527L151.771 190.687L151.931 190.527C151.529 191.009 151.047 191.491 150.565 191.893L150.726 191.732C150.404 191.973 150.082 192.214 149.761 192.375C149.359 192.616 149.198 193.179 149.439 193.58C149.6 193.902 150.163 194.062 150.565 193.741Z" fill="#32142A"/>
<path d="M464.657 81.3214C459.431 83.4107 454.849 85.9821 449.704 88.0714C445.523 83.9732 440.459 81.5625 436.278 77.3839C436.52 78.1875 436.037 76.5803 436.278 77.3839C437.404 72.0803 438.69 66.6161 439.816 61.2321C444.8 60.0268 448.82 58.5 453.804 57.4553L453.161 57.375C457.743 60.75 462.004 62.5982 466.506 65.9732C466.104 65.0893 466.908 66.9375 466.506 65.9732C465.702 70.9553 465.461 76.3393 464.657 81.3214C464.416 82.6071 462.727 83.7321 464.094 84.0536C465.3 84.375 466.908 83.6518 467.149 82.3661L469.48 67.5803C469.722 66.5357 469.239 65.4107 468.355 64.8482L460.878 59.3036L456.135 55.7678C455.733 55.4464 455.331 55.125 454.929 54.8839C453.724 54.0803 452.196 54.6428 450.91 54.9643C446.649 56.0089 442.469 57.6161 438.208 58.6607C437.404 58.9018 436.68 59.5446 436.52 60.3482L434.51 70.2321L433.384 75.5357C433.223 76.0178 433.143 76.5 433.143 76.9821C433.143 78.9107 435.876 80.5982 437.243 81.6428C440.62 84.2946 444.318 86.7053 447.453 89.7589C448.096 90.4018 448.98 90.6428 449.865 90.4018L465.541 84.1339C466.827 83.7321 467.551 82.4464 467.229 81.0803C466.827 79.875 465.863 80.8393 464.657 81.3214Z" fill="#153A23"/>
<path d="M464.094 83.0893C464.335 83.1696 464.978 83.491 464.094 83.0893L464.657 83.3303C467.39 84.6964 469.963 86.5446 472.696 87.991C473.822 88.6339 475.028 89.1964 476.233 89.5982C476.877 89.8393 481.7 90.4018 480.012 89.1964C478.484 88.1518 475.188 86.3035 473.259 85.0178C470.686 83.3303 468.194 81.4018 465.863 79.3928C468.837 81.9643 465.461 81.9642 463.773 82.9285C463.933 83.0089 464.014 83.0893 464.094 83.0893Z" fill="#153A23"/>
<path d="M445.122 102.214C446.649 97.5535 448.82 93.2946 450.508 88.7143C450.99 87.5089 449.945 89.2768 448.739 89.0357C447.373 88.7143 447.212 87.1071 446.729 88.3928C445.041 92.9732 444.398 96.8303 442.871 101.491C442.469 102.696 442.067 103.902 443.273 104.223C444.478 104.545 444.318 104.062 444.72 102.777L445.122 102.214Z" fill="#153A23"/>
<path d="M434.831 75.2142C433.947 75.3749 433.143 75.616 432.259 76.0178C430.49 76.5803 428.722 76.9017 426.873 76.9821C425.586 77.1428 424.3 77.3035 423.014 77.4642C422.129 77.5446 420.602 77.9464 419.718 78.1071C418.833 78.2678 417.949 78.5892 419.316 79.3928C419.718 79.5535 420.12 79.6339 420.522 79.5535C423.255 79.5535 425.988 79.5535 428.722 79.7946C431.375 80.116 434.108 80.116 436.841 79.7946C438.128 79.6339 434.912 78.1071 434.59 77.2232C434.269 76.3392 436.198 74.9732 434.831 75.2142Z" fill="#153A23"/>
<path d="M439.414 58.5804C439.253 58.5 439.092 59.0625 438.931 58.9822C438.931 58.9822 439.494 58.6608 439.253 58.5C439.173 58.5 439.092 59.0625 438.931 58.9822C438.529 58.8215 438.208 58.6608 437.806 58.4197C436.118 57.5358 434.51 56.4911 432.822 55.6072C431.133 54.7233 429.606 53.9197 427.998 53.1161C427.355 52.7947 424.943 51.509 424.782 52.3125C424.782 52.9554 425.023 53.5983 425.506 54C426.792 55.2054 428.239 56.4108 429.686 57.4554C431.053 58.6608 432.58 59.7054 434.108 60.75C435.796 61.7947 436.198 62.6786 438.047 63.3215C439.253 63.7233 436.922 62.5179 437.243 61.3125C437.645 59.9465 440.7 59.0625 439.414 58.5804Z" fill="#153A23"/>
<path d="M455.171 57.1339C455.814 56.0089 456.376 55.6071 456.618 54.4018C457.261 51.9107 458.225 49.5803 459.351 47.25C460.155 45.7232 460.878 44.1161 461.602 42.4286C461.763 41.8661 462.084 40.9018 461.602 40.4196C461.28 40.0982 460.637 40.2589 460.316 40.5C459.672 40.9821 459.19 41.625 458.869 42.3482C457.582 44.5982 456.216 46.8482 455.01 49.1786C454.447 50.3036 453.965 51.4286 453.322 52.4732C452.678 53.5178 452.035 54.5625 451.392 55.6071C450.749 56.6518 452.518 55.2053 453.723 55.8482C454.929 56.4911 454.447 58.2589 455.171 57.1339Z" fill="#153A23"/>
<path d="M468.355 69.0268C471.49 67.4197 474.706 65.8929 477.922 64.4465L477.6 64.6072C478.967 64.2054 483.871 61.5536 483.227 60.3482C482.906 59.7054 479.047 60.8304 478.002 61.3125C476.957 61.7947 473.661 62.759 472.455 63.1607C470.284 63.8036 467.953 63.8036 465.943 64.8482C464.818 65.4107 466.747 65.5715 467.39 66.6965C468.033 67.8215 467.149 69.6697 468.355 69.0268Z" fill="#153A23"/>
<path d="M429.043 109.446L429.124 106.071L427.355 108.402C429.525 108.08 431.776 107.679 433.947 107.277L433.304 107.357C433.465 107.357 433.545 107.357 433.706 107.357L433.063 107.277C433.465 107.357 433.224 107.196 432.42 106.875C432.259 106.714 432.178 106.554 432.098 106.393C431.937 105.991 432.098 106.393 432.098 106.473C432.178 106.795 432.259 107.116 432.339 107.438L432.741 109.527C433.143 110.813 434.429 111.616 435.716 111.214C437.002 110.813 437.725 109.527 437.404 108.161C437.163 107.116 437.002 106.071 436.761 105.027C436.6 104.223 436.118 103.58 435.555 103.098C434.671 102.455 433.625 102.295 432.58 102.536C430.41 102.857 428.239 103.259 426.069 103.58C425.586 103.741 425.104 103.982 424.782 104.464C424.461 104.866 424.3 105.429 424.22 105.991L424.139 109.366C424.139 110.652 425.265 111.777 426.551 111.777C427.918 111.777 428.963 110.732 429.043 109.446Z" fill="#153A23"/>
<path d="M468.274 105.75C468.194 105.75 468.194 105.67 468.114 105.67L468.516 106.152C468.516 106.071 468.435 106.071 468.435 105.991L468.676 106.554C468.676 106.473 468.676 106.473 468.596 106.393L468.676 107.036C468.676 106.955 468.676 106.875 468.676 106.795L468.596 107.437C468.596 107.357 468.676 107.277 468.676 107.196L468.435 107.759C468.435 107.679 468.516 107.679 468.516 107.598L468.114 108.08C468.194 108 468.274 107.92 468.274 107.92L467.792 108.321C467.873 108.241 468.033 108.161 468.114 108.161L467.551 108.402C467.712 108.321 467.873 108.321 468.033 108.321L467.39 108.402C468.194 108.321 468.998 108.321 469.882 108.321C470.686 108.321 471.41 108.321 472.214 108.402L471.571 108.321C471.812 108.402 472.133 108.402 472.374 108.562L471.812 108.321C471.973 108.402 472.133 108.482 472.294 108.643L471.812 108.241C471.973 108.321 472.053 108.482 472.133 108.562L471.731 108.08C471.812 108.241 471.892 108.402 471.973 108.562L471.731 108C471.812 108.161 471.812 108.241 471.812 108.402L471.731 107.759C471.731 107.92 471.731 108 471.731 108.161L471.812 107.518C471.812 107.598 471.812 107.679 471.731 107.759L471.973 107.196C471.973 107.277 471.892 107.357 471.812 107.437C471.169 108.643 471.49 110.089 472.696 110.812C473.902 111.455 475.349 111.054 476.073 109.929C477.037 108.321 476.716 106.232 475.269 104.946C473.982 103.741 472.294 103.58 470.606 103.58H468.516C467.712 103.58 466.988 103.661 466.184 103.821C465.059 104.143 464.094 105.107 463.773 106.232C463.451 107.357 463.772 108.643 464.657 109.446C465.139 109.848 465.702 110.17 466.425 110.17C467.712 110.17 468.837 109.045 468.837 107.759C468.837 107.116 468.596 106.473 468.114 106.071L468.274 105.75Z" fill="#153A23"/>
<path d="M255.718 416.571C253.949 418.018 254.592 421.071 256.522 422.116C258.129 423.08 259.978 422.679 261.667 422.518L263.998 422.277C264.882 422.277 265.767 422.116 266.651 421.955C268.098 421.554 269.063 420.348 269.063 418.902C269.063 418.179 269.063 417.375 269.063 416.652C269.063 415.286 267.937 414.241 266.651 414.241C265.284 414.241 264.239 415.366 264.239 416.652V418.259C264.239 418.42 264.239 418.58 264.239 418.661C264.239 418.982 264.239 418.58 264.32 418.42L265.124 417.375C265.526 417.214 265.606 417.214 265.445 417.214C265.284 417.214 266.088 417.134 265.686 417.214C264.561 417.295 263.355 417.455 262.229 417.536C261.184 417.696 260.059 417.777 259.014 417.857C258.933 417.857 258.853 417.857 258.692 417.857C259.094 417.938 259.175 417.938 259.014 417.857H258.853C258.612 417.857 259.255 418.179 258.933 417.937C258.933 417.937 259.416 418.339 259.175 418.098C259.416 418.42 259.496 418.5 259.416 418.339C259.335 418.259 259.416 418.259 259.496 418.5C259.576 418.741 259.576 418.741 259.576 418.661C259.576 418.58 259.576 418.58 259.576 419.063C259.576 418.741 259.496 419.384 259.496 419.384C259.416 419.625 259.335 419.786 259.175 419.946C259.014 420.107 259.014 420.188 259.094 420.027C260.059 419.063 260.059 417.536 259.094 416.571C258.21 415.688 256.682 415.688 255.718 416.571Z" fill="#153A23"/>
<path d="M290.688 421.473H295.351C295.833 421.473 296.396 421.473 296.878 421.312C297.763 421.071 298.486 420.429 298.808 419.625C299.049 418.661 299.129 417.616 299.049 416.571C299.049 415.928 298.808 415.286 298.326 414.803C297.441 413.839 295.914 413.759 294.949 414.723C294.467 415.205 294.145 415.848 294.226 416.571C294.226 417.214 294.226 417.857 294.226 418.5L294.306 417.857C294.306 417.937 294.306 417.937 294.306 418.018L294.547 417.455V417.536L294.949 417.053C294.949 417.134 294.869 417.134 294.869 417.134L295.351 416.732C295.351 416.732 295.271 416.812 295.19 416.812L295.753 416.571C295.673 416.571 295.592 416.571 295.512 416.652L296.155 416.571C295.271 416.652 294.386 416.571 293.502 416.571H290.769C290.126 416.571 289.482 416.812 289.08 417.295C288.598 417.777 288.357 418.339 288.357 419.062C288.357 420.268 289.402 421.393 290.688 421.473Z" fill="#153A23"/>
<path d="M289 408.536C291.412 410.304 293.824 412.393 296.155 414.402C296.637 414.884 297.441 414.884 297.924 414.402C298.406 413.92 298.406 413.116 297.924 412.634C295.431 410.464 292.859 408.375 290.286 406.366C289.724 406.045 288.92 406.205 288.598 406.768C288.276 407.411 288.437 408.134 289 408.536Z" fill="#227B3D"/>
<path d="M283.855 411.107C285.784 412.875 287.875 414.482 290.045 416.009C290.608 416.33 291.412 416.17 291.733 415.607C292.055 415.045 291.894 414.321 291.331 413.92C290.849 413.598 290.286 413.196 289.804 412.875C289.563 412.714 289.322 412.473 289.08 412.312L289 412.232L288.92 412.152L288.518 411.83C287.553 411.027 286.588 410.223 285.704 409.42C285.222 408.937 284.418 408.937 284.016 409.42C283.614 409.902 283.373 410.625 283.855 411.107Z" fill="#227B3D"/>
<path d="M427.274 113.705L432.822 125.116C433.143 125.679 433.947 125.92 434.51 125.598C435.073 125.277 435.314 124.473 434.912 123.911L429.365 112.58C429.043 112.018 428.239 111.777 427.676 112.179C427.114 112.42 426.953 113.143 427.274 113.705Z" fill="#227B3D"/>
<path d="M433.384 111.696C434.027 113.384 434.831 114.991 435.716 116.518C436.68 118.286 437.645 119.973 438.449 121.821C438.771 122.384 439.574 122.625 440.137 122.223C440.7 121.902 440.941 121.098 440.539 120.536C439.735 118.768 438.771 117.08 437.886 115.393C437.484 114.589 437.002 113.786 436.6 112.902C436.439 112.5 436.198 112.098 436.037 111.777L435.957 111.536C435.796 111.214 436.037 111.616 435.957 111.455C435.876 111.295 435.796 111.134 435.796 110.973C435.635 110.33 434.912 109.929 434.269 110.089C433.625 110.33 433.223 111.054 433.384 111.696Z" fill="#227B3D"/>
<path d="M270.027 38.8125C276.459 31.2589 283.533 24.1875 291.01 17.6786C292.216 16.6339 290.447 14.9464 289.322 15.9911C281.765 22.5 274.771 29.6518 268.339 37.2053C267.294 38.3303 268.982 40.0982 270.027 38.8125Z" fill="#EFB086"/>
<path d="M275.173 41.4643C280.639 36.0804 285.865 30.375 291.573 25.3125C292.778 24.2679 291.01 22.5 289.804 23.625C284.096 28.7679 278.871 34.3929 273.404 39.8572C272.278 40.8214 274.047 42.5893 275.173 41.4643Z" fill="#EFB086"/>
<path d="M91.4765 291.295C87.7785 294.83 88.6628 302.223 95.0137 300.455C104.339 297.804 97.8275 285.268 91.4765 291.295Z" fill="white"/>
<path d="M118.81 81.8838C116.961 83.6517 117.443 87.3481 120.578 86.4642C125.322 85.1785 122.026 78.9106 118.81 81.8838Z" fill="white"/>
<path d="M276.298 111.616C277.343 107.839 278.71 104.143 280.318 100.527C280.559 99.9642 281.122 99.3214 281.604 99.5625C282.086 99.8035 282.086 100.527 281.925 101.009C281.122 104.384 280.318 107.839 279.514 111.214C282.729 110.893 285.865 111.375 288.839 112.661C289.08 112.741 289.241 113.062 289.08 113.304C289.08 113.384 289 113.464 288.92 113.545C287.151 114.67 285.061 115.232 282.971 115.152C282.247 115.071 281.363 114.991 280.8 115.554C280.478 115.955 280.318 116.357 280.237 116.839C279.514 119.812 278.469 122.625 277.022 125.277C276.861 125.518 276.539 125.679 276.218 125.518C276.057 125.437 275.976 125.277 275.976 125.116C275.414 122.464 276.539 119.491 276.459 116.679C276.459 116.357 276.378 116.036 276.218 115.795C275.976 115.473 275.574 115.312 275.173 115.312C272.198 114.67 269.224 113.786 266.41 112.661C265.606 112.339 264.722 111.536 265.284 110.893C265.445 110.732 265.686 110.652 266.008 110.571C267.776 110.25 269.625 110.25 271.394 110.571L276.298 111.616Z" fill="white"/>
<path d="M302.988 78.0267C300.094 80.7589 300.818 86.5446 305.802 85.1785C313.118 83.0892 307.973 73.366 302.988 78.0267Z" fill="white"/>
<path d="M364.488 358.071C360.79 361.607 361.675 369 368.026 367.232C377.431 364.58 370.839 352.045 364.488 358.071Z" fill="white"/>
<path d="M378.396 324.321C376.547 326.089 377.029 329.786 380.165 328.902C384.908 327.616 381.612 321.348 378.396 324.321Z" fill="white"/>
<path d="M412.643 330.027C410.955 325.205 409.669 320.304 408.704 315.321C408.543 314.518 408.624 313.473 409.427 313.312C410.231 313.152 410.633 313.955 410.875 314.679C412.482 318.857 414.171 323.116 415.778 327.295C418.914 324.643 422.692 322.795 426.712 321.911C427.033 321.83 427.435 322.071 427.435 322.393C427.435 322.554 427.435 322.634 427.355 322.795C426.31 325.286 424.541 327.375 422.21 328.821C421.406 329.304 420.441 329.866 420.2 330.83C420.12 331.473 420.28 332.116 420.522 332.679C421.969 336.295 422.853 340.152 423.335 344.009C423.335 344.411 423.094 344.813 422.692 344.813C422.451 344.813 422.29 344.732 422.129 344.652C419.557 342.321 418.592 338.223 416.502 335.33C416.261 335.009 415.939 334.688 415.618 334.527C415.135 334.446 414.573 334.527 414.171 334.768C410.553 336.214 406.775 337.5 402.916 338.384C401.871 338.625 400.263 338.384 400.424 337.339C400.504 337.018 400.665 336.777 400.906 336.536C402.514 334.848 404.443 333.563 406.614 332.598L412.643 330.027Z" fill="white"/>
<path d="M431.776 295.312C429.927 297.08 430.41 300.777 433.545 299.893C438.288 298.527 434.992 292.339 431.776 295.312Z" fill="white"/>
<path d="M81.8294 335.25C82.151 331.634 82.7941 328.098 83.598 324.643C83.7588 324.08 84.0804 323.437 84.6431 323.598C85.2059 323.759 85.2059 324.402 85.2059 324.884C85.0451 328.098 84.8843 331.312 84.6431 334.446C87.4568 333.643 90.4313 333.562 93.3255 334.205C93.5666 334.286 93.7274 334.446 93.7274 334.687C93.7274 334.768 93.647 334.929 93.5666 335.009C92.2 336.295 90.3509 337.179 88.5019 337.42C87.7784 337.42 87.1353 337.661 86.6529 338.143C86.4117 338.545 86.3313 338.946 86.3313 339.429C86.1706 342.161 85.6882 344.893 84.8039 347.464C84.7235 347.705 84.4019 347.866 84.1608 347.786C84 347.705 83.9196 347.625 83.8392 347.464C82.8745 345.214 83.4372 342.321 82.9549 339.83C82.9549 339.509 82.7941 339.268 82.6333 339.027C82.3117 338.786 81.9902 338.705 81.5882 338.705C78.7745 338.625 76.0411 338.304 73.2274 337.821C72.5039 337.661 71.5392 337.018 71.9411 336.455C72.1019 336.295 72.2627 336.134 72.5039 336.054C74.0313 335.491 75.7196 335.17 77.3274 335.25H81.8294Z" fill="white"/>
</g>
<defs>
<filter id="filter0_d_1_353" x="-2" y="0" width="500" height="431" filterUnits="userSpaceOnUse" color-interpolation-filters="sRGB">
<feFlood flood-opacity="0" result="BackgroundImageFix"/>
<feColorMatrix in="SourceAlpha" type="matrix" values="0 0 0 0 0 0 0 0 0 0 0 0 0 0 0 0 0 0 127 0" result="hardAlpha"/>
<feOffset dy="4"/>
<feGaussianBlur stdDeviation="2"/>
<feComposite in2="hardAlpha" operator="out"/>
<feColorMatrix type="matrix" values="0 0 0 0 0 0 0 0 0 0 0 0 0 0 0 0 0 0 0.25 0"/>
<feBlend mode="normal" in2="BackgroundImageFix" result="effect1_dropShadow_1_353"/>
<feBlend mode="normal" in="SourceGraphic" in2="effect1_dropShadow_1_353" result="shape"/>
</filter>
</defs>
</svg>
